<mxfile host="app.diagrams.net" agent="Mozilla/5.0 (Windows NT 10.0; Win64; x64) AppleWebKit/537.36 (KHTML, like Gecko) Chrome/131.0.0.0 Safari/537.36" version="25.0.3">
  <diagram name="Page-1" id="74e2e168-ea6b-b213-b513-2b3c1d86103e">
    <mxGraphModel dx="814" dy="-344" grid="1" gridSize="10" guides="1" tooltips="1" connect="1" arrows="1" fold="1" page="1" pageScale="1" pageWidth="1100" pageHeight="850" background="none" math="0" shadow="0">
      <root>
        <mxCell id="0" />
        <mxCell id="1" parent="0" />
        <mxCell id="Xe7P8urZMCTN7A2goHOA-10" style="edgeStyle=orthogonalEdgeStyle;rounded=0;orthogonalLoop=1;jettySize=auto;html=1;exitX=0.5;exitY=1;exitDx=0;exitDy=0;exitPerimeter=0;entryX=0.5;entryY=0;entryDx=0;entryDy=0;" edge="1" parent="1" source="w-q_3raUrw99rvHJDwSk-3" target="Xe7P8urZMCTN7A2goHOA-9">
          <mxGeometry relative="1" as="geometry" />
        </mxCell>
        <mxCell id="w-q_3raUrw99rvHJDwSk-3" value="选中&lt;span style=&quot;font-size:10.5pt;mso-bidi-font-size:11.0pt;&lt;br/&gt;font-family:等线;mso-ascii-theme-font:minor-latin;mso-fareast-theme-font:minor-fareast;&lt;br/&gt;mso-hansi-theme-font:minor-latin;mso-bidi-font-family:&amp;quot;Times New Roman&amp;quot;;&lt;br/&gt;mso-bidi-theme-font:minor-bidi;mso-ansi-language:EN-US;mso-fareast-language:&lt;br/&gt;ZH-CN;mso-bidi-language:AR-SA&quot;&gt;识别结果显示区域中的文字&lt;/span&gt;" style="strokeWidth=2;html=1;shape=mxgraph.flowchart.start_1;whiteSpace=wrap;" parent="1" vertex="1">
          <mxGeometry x="445" y="1020" width="150" height="100" as="geometry" />
        </mxCell>
        <mxCell id="Xe7P8urZMCTN7A2goHOA-12" style="edgeStyle=orthogonalEdgeStyle;rounded=0;orthogonalLoop=1;jettySize=auto;html=1;exitX=0;exitY=0.5;exitDx=0;exitDy=0;" edge="1" parent="1" source="Xe7P8urZMCTN7A2goHOA-9" target="Xe7P8urZMCTN7A2goHOA-11">
          <mxGeometry relative="1" as="geometry" />
        </mxCell>
        <mxCell id="Xe7P8urZMCTN7A2goHOA-14" style="edgeStyle=orthogonalEdgeStyle;rounded=0;orthogonalLoop=1;jettySize=auto;html=1;exitX=1;exitY=0.5;exitDx=0;exitDy=0;entryX=0.5;entryY=0;entryDx=0;entryDy=0;" edge="1" parent="1" source="Xe7P8urZMCTN7A2goHOA-9" target="Xe7P8urZMCTN7A2goHOA-13">
          <mxGeometry relative="1" as="geometry" />
        </mxCell>
        <mxCell id="Xe7P8urZMCTN7A2goHOA-9" value="&lt;span style=&quot;font-size:10.5pt;mso-bidi-font-size:&lt;br/&gt;11.0pt;font-family:等线;mso-ascii-theme-font:minor-latin;mso-fareast-theme-font:&lt;br/&gt;minor-fareast;mso-hansi-theme-font:minor-latin;mso-bidi-font-family:&amp;quot;Times New Roman&amp;quot;;&lt;br/&gt;mso-bidi-theme-font:minor-bidi;mso-ansi-language:EN;mso-fareast-language:ZH-CN;&lt;br/&gt;mso-bidi-language:AR-SA&quot; lang=&quot;EN&quot;&gt;copy_string=选中的文字&lt;/span&gt;" style="rounded=1;whiteSpace=wrap;html=1;absoluteArcSize=1;arcSize=14;strokeWidth=2;" vertex="1" parent="1">
          <mxGeometry x="470" y="1200" width="100" height="100" as="geometry" />
        </mxCell>
        <mxCell id="Xe7P8urZMCTN7A2goHOA-11" value="点击单词" style="verticalLabelPosition=middle;verticalAlign=middle;html=1;shape=trapezoid;perimeter=trapezoidPerimeter;whiteSpace=wrap;size=0.23;arcSize=10;flipV=1;labelPosition=center;align=center;" vertex="1" parent="1">
          <mxGeometry x="345" y="1390" width="100" height="60" as="geometry" />
        </mxCell>
        <mxCell id="Xe7P8urZMCTN7A2goHOA-13" value="点击释义" style="verticalLabelPosition=middle;verticalAlign=middle;html=1;shape=trapezoid;perimeter=trapezoidPerimeter;whiteSpace=wrap;size=0.23;arcSize=10;flipV=1;labelPosition=center;align=center;" vertex="1" parent="1">
          <mxGeometry x="620" y="1390" width="100" height="60" as="geometry" />
        </mxCell>
        <mxCell id="Xe7P8urZMCTN7A2goHOA-18" value="Y" style="edgeStyle=orthogonalEdgeStyle;rounded=0;orthogonalLoop=1;jettySize=auto;html=1;exitX=0;exitY=0.5;exitDx=0;exitDy=0;exitPerimeter=0;" edge="1" parent="1" source="Xe7P8urZMCTN7A2goHOA-15" target="Xe7P8urZMCTN7A2goHOA-17">
          <mxGeometry relative="1" as="geometry" />
        </mxCell>
        <mxCell id="Xe7P8urZMCTN7A2goHOA-20" value="N" style="edgeStyle=orthogonalEdgeStyle;rounded=0;orthogonalLoop=1;jettySize=auto;html=1;exitX=0.5;exitY=1;exitDx=0;exitDy=0;exitPerimeter=0;entryX=0.5;entryY=0;entryDx=0;entryDy=0;" edge="1" parent="1" source="Xe7P8urZMCTN7A2goHOA-15">
          <mxGeometry relative="1" as="geometry">
            <mxPoint x="395" y="1830" as="targetPoint" />
          </mxGeometry>
        </mxCell>
        <mxCell id="Xe7P8urZMCTN7A2goHOA-15" value="&lt;span style=&quot;font-size:10.5pt;mso-bidi-font-size:&lt;br/&gt;11.0pt;font-family:等线;mso-ascii-theme-font:minor-latin;mso-fareast-theme-font:&lt;br/&gt;minor-fareast;mso-hansi-theme-font:minor-latin;mso-bidi-font-family:&amp;quot;Times New Roman&amp;quot;;&lt;br/&gt;mso-bidi-theme-font:minor-bidi;mso-ansi-language:EN-US;mso-fareast-language:&lt;br/&gt;ZH-CN;mso-bidi-language:AR-SA&quot; lang=&quot;EN-US&quot;&gt;word_mean.at(-1).word=&quot;&quot;&lt;/span&gt;&lt;div&gt;&lt;span style=&quot;font-size:10.5pt;mso-bidi-font-size:&lt;br/&gt;11.0pt;font-family:等线;mso-ascii-theme-font:minor-latin;mso-fareast-theme-font:&lt;br/&gt;minor-fareast;mso-hansi-theme-font:minor-latin;mso-bidi-font-family:&amp;quot;Times New Roman&amp;quot;;&lt;br/&gt;mso-bidi-theme-font:minor-bidi;mso-ansi-language:EN-US;mso-fareast-language:&lt;br/&gt;ZH-CN;mso-bidi-language:AR-SA&quot; lang=&quot;EN-US&quot;&gt;and&lt;/span&gt;&lt;/div&gt;&lt;div&gt;&lt;span style=&quot;font-size:10.5pt;mso-bidi-font-size:&lt;br/&gt;11.0pt;font-family:等线;mso-ascii-theme-font:minor-latin;mso-fareast-theme-font:&lt;br/&gt;minor-fareast;mso-hansi-theme-font:minor-latin;mso-bidi-font-family:&amp;quot;Times New Roman&amp;quot;;&lt;br/&gt;mso-bidi-theme-font:minor-bidi;mso-ansi-language:EN-US;mso-fareast-language:&lt;br/&gt;ZH-CN;mso-bidi-language:AR-SA&quot; lang=&quot;EN-US&quot;&gt;word_mean.at(-1).mean=&quot;&quot;&lt;/span&gt;&lt;/div&gt;" style="strokeWidth=2;html=1;shape=mxgraph.flowchart.decision;whiteSpace=wrap;" vertex="1" parent="1">
          <mxGeometry x="282.5" y="1500" width="225" height="190" as="geometry" />
        </mxCell>
        <mxCell id="Xe7P8urZMCTN7A2goHOA-16" style="edgeStyle=orthogonalEdgeStyle;rounded=0;orthogonalLoop=1;jettySize=auto;html=1;exitX=0.5;exitY=1;exitDx=0;exitDy=0;entryX=0.5;entryY=0;entryDx=0;entryDy=0;entryPerimeter=0;" edge="1" parent="1" source="Xe7P8urZMCTN7A2goHOA-11" target="Xe7P8urZMCTN7A2goHOA-15">
          <mxGeometry relative="1" as="geometry" />
        </mxCell>
        <mxCell id="Xe7P8urZMCTN7A2goHOA-17" value="在word_mean中新增一个对象，将&lt;span style=&quot;font-family: 等线; font-size: 14px;&quot;&gt;copy_string&lt;/span&gt;" style="rounded=1;whiteSpace=wrap;html=1;absoluteArcSize=1;arcSize=14;strokeWidth=2;" vertex="1" parent="1">
          <mxGeometry x="160" y="1830" width="100" height="100" as="geometry" />
        </mxCell>
        <mxCell id="Xe7P8urZMCTN7A2goHOA-21" value="" style="strokeWidth=2;html=1;shape=mxgraph.flowchart.decision;whiteSpace=wrap;" vertex="1" parent="1">
          <mxGeometry x="345" y="1830" width="100" height="100" as="geometry" />
        </mxCell>
      </root>
    </mxGraphModel>
  </diagram>
</mxfile>
